<?xml version="1.0" standalone="no"?><!DOCTYPE svg PUBLIC "-//W3C//DTD SVG 1.1//EN" "http://www.w3.org/Graphics/SVG/1.1/DTD/svg11.dtd"><svg t="1627120291083" class="icon" viewBox="0 0 1024 1024" version="1.1" xmlns="http://www.w3.org/2000/svg" p-id="687" xmlns:xlink="http://www.w3.org/1999/xlink" width="200" height="200"><defs><style type="text/css">@font-face { font-family: feedback-iconfont; src: url("//at.alicdn.com/t/font_1031158_1uhr8ri0pk5.eot?#iefix") format("embedded-opentype"), url("//at.alicdn.com/t/font_1031158_1uhr8ri0pk5.woff2") format("woff2"), url("//at.alicdn.com/t/font_1031158_1uhr8ri0pk5.woff") format("woff"), url("//at.alicdn.com/t/font_1031158_1uhr8ri0pk5.ttf") format("truetype"), url("//at.alicdn.com/t/font_1031158_1uhr8ri0pk5.svg#iconfont") format("svg"); }
</style></defs><path d="M429.5 562.1c6.2-3.5 13.3-5.3 20.7-5.3-7.4-0.1-14.5 1.8-20.7 5.3z" fill="#ffffff" p-id="688"></path><path d="M927.8 502.5c-14.9-135.2-129.7-233-259.8-233-18.3 0-36.3 1.7-54.6 5.5l-238.9 50.8h-4.7c-13.2 0-26-6.4-34.1-17.5l-27.3-37.1c-6.4-8.5-15.8-14.5-26-16.6l-125-24.8c-3-0.9-6-0.9-8.5-0.9-28.2 0-49.9 27.7-40.5 55.9l60.2 180c0.3 1.3 0.7 2.5 1 3.8 0.4 1.3-0.6 2.6-1.9 2.6h-38.9c-23.8 0-43.8 19.5-43.4 43.3 0.3 23.2 19.4 42.1 42.7 42.1h40.7c1.1 0 2 0.9 2 2v85.5c0 22.6 17.9 41.4 40.5 42.7l84-0.3 82.8-132.4c15.7-25.1 42.7-40.1 72.4-40.1h223.7c33.9 0 63.7 19.2 77.7 50.1 14 30.9 8.8 65.9-13.5 91.5l-22.9 26.2c-1.1 1.3-0.2 3.3 1.5 3.3l114.8-0.4c39.7 0 75.5-22.2 93.4-57.6 9-17.9 12.4-38.4 10.2-58.5l-7.6-66.1z" fill="#333333" p-id="689" data-spm-anchor-id="a313x.7781069.0.i1" class="selected"></path><path d="M673.8 556.7H450.1c-14.7 0-28.4 7.6-36.2 20l-160 256c-17.8 28.4 2.7 65.3 36.2 65.3h159.7c12.3 0 24-5.3 32.1-14.6l224-256c24.1-27.5 4.6-70.7-32.1-70.7zM400.5 275.4c0.5 0.7 1.3 1 2.1 0.8l202-42.9c15.7-3.3 31.6-5 47.8-5.7 1.7-0.1 2.5-2.2 1.3-3.4L572 142.5c-8-8-18.8-12.5-30.2-12.5H383.3c-34.1 0-54.4 38-35.5 66.3l52.7 79.1z" fill="#333333" p-id="690" data-spm-anchor-id="a313x.7781069.0.i2" class="selected"></path></svg>