<svg xmlns="http://www.w3.org/2000/svg" xmlns:xlink="http://www.w3.org/1999/xlink" viewBox="0 0 1000 1000"><defs><linearGradient id="a" x1="505.007" y1="194.725" x2="505.007" y2="719.205" gradientUnits="userSpaceOnUse"><stop offset="0" stop-color="#fff"/><stop offset="0.093" stop-color="#fff" stop-opacity="0.864"/><stop offset="0.284" stop-color="#fff" stop-opacity="0.605"/><stop offset="0.466" stop-color="#fff" stop-opacity="0.389"/><stop offset="0.633" stop-color="#fff" stop-opacity="0.221"/><stop offset="0.784" stop-color="#fff" stop-opacity="0.1"/><stop offset="0.911" stop-color="#fff" stop-opacity="0.026"/><stop offset="1" stop-color="#fff" stop-opacity="0"/></linearGradient></defs><title>111-coding</title><g style="isolation:isolate"><path d="M744.124,546.4" style="fill:none;stroke:#212728;stroke-linecap:round;stroke-linejoin:round;stroke-width:6px"/><path d="M758.34,513.448" style="fill:none;stroke:#212728;stroke-linecap:round;stroke-linejoin:round;stroke-width:6px"/><polyline points="182.562 561.774 190.394 524.448 231.562 515.115" style="fill:none;stroke:#283035;stroke-linecap:round;stroke-linejoin:round;stroke-width:8px"/><path d="M310.7,435.853H648.478a17.113,17.113,0,0,1,17.113,17.113V675.853a0,0,0,0,1,0,0h-372a0,0,0,0,1,0,0V452.965A17.113,17.113,0,0,1,310.7,435.853Z" style="fill:#d2dce6"/><path d="M310.7,435.853H648.478a17.113,17.113,0,0,1,17.113,17.113V675.853a0,0,0,0,1,0,0h-372a0,0,0,0,1,0,0V452.965A17.113,17.113,0,0,1,310.7,435.853Z" style="fill:none;stroke:#283035;stroke-linecap:round;stroke-linejoin:round;stroke-width:6px"/><rect x="387.591" y="398.136" width="184" height="316" transform="translate(1035.727 76.545) rotate(90)" style="fill:#ff5c5c"/><line x1="505.007" y1="618.781" x2="557.007" y2="618.781" style="fill:#fff;stroke:#fff;stroke-linecap:round;stroke-linejoin:round;stroke-width:6px;opacity:0.30000000000000004"/><g style="opacity:0.30000000000000004"><path d="M631.78,561.585a4.464,4.464,0,0,1,4.547,3.143V553.273a12.25,12.25,0,0,0-3.38-.492H631.78q-3.774,0-3.773,3.773V557.9C628.007,560.327,629.264,561.585,631.78,561.585Z" style="fill:#fff"/><path d="M636.327,616.494a4.472,4.472,0,0,1-4.547,3.12q-3.774,0-3.773,3.772v1.348q0,3.772,3.773,3.773h1.167a12.25,12.25,0,0,0,3.38-.492Z" style="fill:#fff"/></g><rect x="387.591" y="398.136" width="184" height="316" transform="translate(1035.727 76.545) rotate(90)" style="fill:none;stroke:#283035;stroke-linecap:round;stroke-linejoin:round;stroke-width:6px"/><path d="M252.543,676h454.1a4,4,0,0,1,4,4v4.791a20,20,0,0,1-20,20h-422.1a20,20,0,0,1-20-20V680A4,4,0,0,1,252.543,676Z" style="fill:#e5e5e5"/><path d="M690.639,695.787h-422.1A19.986,19.986,0,0,1,248.778,678.7a3.957,3.957,0,0,0-.235,1.3v4.791a20,20,0,0,0,20,20h422.1a20,20,0,0,0,20-20V680a3.957,3.957,0,0,0-.235-1.3A19.986,19.986,0,0,1,690.639,695.787Z" style="fill:#cfd1d0"/><path d="M252.543,676h454.1a4,4,0,0,1,4,4v4.791a20,20,0,0,1-20,20h-422.1a20,20,0,0,1-20-20V680A4,4,0,0,1,252.543,676Z" style="fill:none;stroke:#283035;stroke-linecap:round;stroke-linejoin:round;stroke-width:6px"/><path d="M437.591,675.853h84a0,0,0,0,1,0,0v0a8,8,0,0,1-8,8h-68a8,8,0,0,1-8-8v0a0,0,0,0,1,0,0Z" style="fill:#686b6d"/><path d="M437.591,675.853h84a0,0,0,0,1,0,0v0a8,8,0,0,1-8,8h-68a8,8,0,0,1-8-8v0a0,0,0,0,1,0,0Z" style="fill:none;stroke:#283035;stroke-linecap:round;stroke-linejoin:round;stroke-width:4px"/><circle cx="478.804" cy="449.619" r="8" style="fill:#686b6d"/><circle cx="478.804" cy="449.619" r="8" style="fill:none;stroke:#283035;stroke-linecap:round;stroke-linejoin:round;stroke-width:4px"/><path d="M153.455,704.787h49.1a7,7,0,0,0,6.944-6.115l13.115-102.9H133.4l13.116,102.9A7,7,0,0,0,153.455,704.787Z" style="fill:#ead57d"/><path d="M147.048,595.774l10.406,95.034a7.983,7.983,0,0,0,7.935,7.114H209.6l-.095.75a7,7,0,0,1-6.944,6.115h-49.1a7,7,0,0,1-6.943-6.115L133.4,595.774Z" style="fill:#e5c66e"/><path d="M153.455,704.787h49.1a7,7,0,0,0,6.944-6.115l13.115-102.9H133.4l13.116,102.9A7,7,0,0,0,153.455,704.787Z" style="fill:none;stroke:#283035;stroke-linecap:round;stroke-linejoin:round;stroke-width:6px"/><polygon points="219.25 675.164 225.593 625.397 130.42 625.397 136.763 675.164 219.25 675.164" style="fill:#5cbf84"/><polygon points="219.25 675.164 225.593 625.397 130.42 625.397 136.763 675.164 219.25 675.164" style="fill:#4fb277"/><path d="M218.856,669.414l5.319-44.017H144.367l4.9,40.524a3.97,3.97,0,0,0,3.941,3.493Z" style="fill:#5cbf84"/><polygon points="219.25 675.164 225.593 625.397 130.42 625.397 136.763 675.164 219.25 675.164" style="fill:none;stroke:#283035;stroke-linecap:round;stroke-linejoin:round;stroke-width:6px"/><rect x="116.667" y="573.774" width="122.678" height="22" rx="11" transform="translate(356.013 1169.547) rotate(180)" style="fill:#5cbf84"/><rect x="116.667" y="573.774" width="122.678" height="22" rx="11" transform="translate(356.013 1169.547) rotate(180)" style="fill:#4fb277"/><rect x="130.42" y="573.774" width="108.926" height="17.25" rx="8.625" transform="translate(369.765 1164.797) rotate(-180)" style="fill:#5cbf84"/><rect x="116.667" y="573.774" width="122.678" height="22" rx="11" transform="translate(356.013 1169.547) rotate(180)" style="fill:none;stroke:#283035;stroke-linecap:round;stroke-linejoin:round;stroke-width:6px"/><polygon points="138.006 573.774 218.006 573.774 216.423 561.774 139.59 561.774 138.006 573.774" style="fill:#5cbf84"/><polygon points="139.59 561.774 163.062 561.774 157.506 573.774 138.006 573.774 139.59 561.774" style="fill:#54af79"/><polygon points="138.006 573.774 218.006 573.774 216.423 561.774 139.59 561.774 138.006 573.774" style="fill:none;stroke:#283035;stroke-linecap:round;stroke-linejoin:round;stroke-width:6px"/><path d="M252.926,700.963" style="fill:none;stroke:#212728;stroke-linecap:round;stroke-linejoin:round;stroke-width:6px"/><path d="M721.134,704.886a28.99,28.99,0,0,1,57.979,0Z" style="fill:#e5e5e5"/><path d="M750.124,695.729a29.046,29.046,0,0,0,21.976-9.736,28.967,28.967,0,0,0-43.953,0A29.047,29.047,0,0,0,750.124,695.729Z" style="fill:#cfd1d0"/><path d="M721.134,704.886a28.99,28.99,0,0,1,57.979,0Z" style="fill:none;stroke:#283035;stroke-linecap:round;stroke-linejoin:round;stroke-width:6px"/><rect x="367.007" y="499.781" width="168" height="134" rx="8.008" style="opacity:0.14;mix-blend-mode:multiply"/><rect x="359.174" y="492.781" width="168" height="134" rx="8.008" style="fill:#353f49"/><rect x="359.174" y="492.781" width="168" height="134" rx="8.008" style="fill:none;stroke:#283035;stroke-linecap:round;stroke-linejoin:round;stroke-width:4px"/><path d="M367.181,492.781H519.166a8.008,8.008,0,0,1,8.008,8.008v11.992a0,0,0,0,1,0,0h-168a0,0,0,0,1,0,0V500.789A8.008,8.008,0,0,1,367.181,492.781Z" style="fill:#eaeeef"/><path d="M367.181,492.781H519.166a8.008,8.008,0,0,1,8.008,8.008v11.992a0,0,0,0,1,0,0h-168a0,0,0,0,1,0,0V500.789A8.008,8.008,0,0,1,367.181,492.781Z" style="fill:none;stroke:#283035;stroke-linecap:round;stroke-linejoin:round;stroke-width:4px"/><circle cx="373.507" cy="502.781" r="3.125" style="fill:#283035;opacity:0.35000000000000003"/><circle cx="383.34" cy="502.781" r="3.125" style="fill:#283035;opacity:0.35000000000000003"/><circle cx="392.674" cy="502.781" r="3.125" style="fill:#283035;opacity:0.35000000000000003"/><line x1="367.007" y1="519.781" x2="378.007" y2="519.781" style="fill:none;stroke:#46bb86;stroke-miterlimit:10;stroke-width:3px"/><line x1="382.007" y1="519.781" x2="412.007" y2="519.781" style="fill:none;stroke:#46bb86;stroke-miterlimit:10;stroke-width:3px"/><line x1="367.007" y1="527.781" x2="412.007" y2="527.781" style="fill:none;stroke:#389abe;stroke-miterlimit:10;stroke-width:3px"/><line x1="376.007" y1="535.781" x2="398.007" y2="535.781" style="fill:none;stroke:#e5c689;stroke-miterlimit:10;stroke-width:3px"/><line x1="402.007" y1="535.781" x2="426.007" y2="535.781" style="fill:none;stroke:#f2f3f4;stroke-miterlimit:10;stroke-width:3px"/><line x1="388.007" y1="543.781" x2="434.007" y2="543.781" style="fill:none;stroke:#f2f3f4;stroke-miterlimit:10;stroke-width:3px"/><line x1="388.007" y1="551.781" x2="422.007" y2="551.781" style="fill:none;stroke:#ffa49f;stroke-miterlimit:10;stroke-width:3px"/><line x1="376.007" y1="559.781" x2="426.007" y2="559.781" style="fill:none;stroke:#f2f3f4;stroke-miterlimit:10;stroke-width:3px"/><line x1="367.007" y1="566.781" x2="394.007" y2="566.781" style="fill:none;stroke:#389abe;stroke-miterlimit:10;stroke-width:3px"/><g style="opacity:0.30000000000000004"><path d="M599.643,605.522c0-3.952-1.528-6.736-4.582-8.443-2.156-1.168-3.054-2.067-3.054-4.132v-3.5c0-2.425,1.078-2.964,2.964-4.222,3.144-1.347,4.672-4.221,4.672-8.533v-7.636c0-6.108,2.245-10.6,5.479-12.486a15.02,15.02,0,0,1,8.264-2.785h1.168q3.772,0,3.773,3.773V558.9c0,2.425-1.258,3.683-3.773,3.683-3.5,0-5.21,2.515-5.21,7.635v9.432a11.959,11.959,0,0,1-6.557,11.139l-.809.269v.18a7.017,7.017,0,0,1,2.515,1.348c2.246,1.346,4.851,4.491,4.851,9.97v10.51c0,5.03,1.707,7.546,5.21,7.546q3.772,0,3.773,3.772v1.348q0,3.772-3.773,3.773h-1.168a15.02,15.02,0,0,1-8.264-2.785c-3.234-1.886-5.479-6.467-5.479-12.486Z" style="fill:#fff"/></g><path d="M161.665,650.076" style="fill:none;stroke:#212728;stroke-linecap:round;stroke-miterlimit:10"/><path d="M148.923,653.683l2-1.946a42.611,42.611,0,0,0,53.664,0l2.5,2.444" style="fill:none;stroke:#283035;stroke-linecap:round;stroke-linejoin:round;stroke-width:3px"/><path d="M171.624,643.6a4.281,4.281,0,0,0-4.281-4.281h0a4.281,4.281,0,0,0-4.281,4.281v3.921" style="fill:none;stroke:#283035;stroke-linecap:round;stroke-linejoin:round;stroke-width:3px"/><path d="M184.388,643.6a4.281,4.281,0,0,1,4.281-4.281h0a4.281,4.281,0,0,1,4.281,4.281v3.921" style="fill:none;stroke:#283035;stroke-linecap:round;stroke-linejoin:round;stroke-width:3px"/><rect x="793.741" y="574.886" width="96" height="130" rx="9.1" style="fill:#e5e5e5"/><path d="M880.641,574.886h-1.153a9.091,9.091,0,0,1,.253,2.1v111.8a9.1,9.1,0,0,1-9.1,9.1H794a9.1,9.1,0,0,0,8.847,7h77.8a9.1,9.1,0,0,0,9.1-9.1v-111.8A9.1,9.1,0,0,0,880.641,574.886Z" style="fill:#cfd1d0"/><rect x="793.741" y="574.886" width="96" height="130" rx="9.1" style="fill:none;stroke:#283035;stroke-linecap:round;stroke-linejoin:round;stroke-width:6px"/><path d="M857.741,567.342h-8v-3a8,8,0,0,0-16,0v3h-8a8,8,0,0,0,0,16h32a8,8,0,0,0,0-16Z" style="fill:#f7b66f"/><path d="M861.458,568.262a7.974,7.974,0,0,1-7.717,10.08h-32a7.958,7.958,0,0,1-3.717-.919,8,8,0,0,0,7.717,5.919h32a8,8,0,0,0,3.717-15.08Z" style="fill:#eda762"/><path d="M845.741,559.342v3h3.738a8,8,0,0,0-4.021-5.08A7.971,7.971,0,0,1,845.741,559.342Z" style="fill:#eda762"/><path d="M857.741,567.342h-8v-3a8,8,0,0,0-16,0v3h-8a8,8,0,0,0,0,16h32a8,8,0,0,0,0-16Z" style="fill:none;stroke:#283035;stroke-linecap:round;stroke-linejoin:round;stroke-width:6px"/><circle cx="841.741" cy="604.009" r="8.333" style="fill:#8eafbf"/><circle cx="841.741" cy="604.009" r="8.333" style="fill:none;stroke:#283035;stroke-linecap:round;stroke-linejoin:round;stroke-width:6px"/><line x1="809.964" y1="629.676" x2="829.964" y2="629.676" style="fill:none;stroke:#283035;stroke-linecap:round;stroke-linejoin:round;stroke-width:6px"/><line x1="809.964" y1="656.842" x2="829.964" y2="656.842" style="fill:none;stroke:#283035;stroke-linecap:round;stroke-linejoin:round;stroke-width:6px"/><line x1="809.964" y1="684.009" x2="829.964" y2="684.009" style="fill:none;stroke:#283035;stroke-linecap:round;stroke-linejoin:round;stroke-width:6px"/><polyline points="843.178 628.606 848.392 635.541 863.996 623.811" style="fill:none;stroke:#8bafc1;stroke-linecap:round;stroke-linejoin:round;stroke-width:4px"/><polyline points="843.178 655.772 848.392 662.708 863.996 650.977" style="fill:none;stroke:#8bafc1;stroke-linecap:round;stroke-linejoin:round;stroke-width:4px"/><rect x="894.104" y="630.914" width="10" height="64" transform="translate(-82.787 130.247) rotate(-7.922)" style="fill:#3bbc88"/><rect x="894.104" y="630.914" width="10" height="64" transform="translate(-82.787 130.247) rotate(-7.922)" style="fill:none;stroke:#283035;stroke-linecap:round;stroke-linejoin:round;stroke-width:4px"/><polygon points="908.467 693.92 898.562 695.298 904.893 704.513 908.467 693.92" style="fill:#e5e5e5"/><polygon points="908.467 693.92 898.562 695.298 904.893 704.513 908.467 693.92" style="fill:none;stroke:#283035;stroke-linecap:round;stroke-linejoin:round;stroke-width:4px"/><rect x="891.005" y="621.267" width="6" height="10" transform="matrix(0.99, -0.138, 0.138, 0.99, -77.784, 129.195)" style="fill:#e5e5e5"/><rect x="891.005" y="621.267" width="6" height="10" transform="matrix(0.99, -0.138, 0.138, 0.99, -77.784, 129.195)" style="fill:none;stroke:#283035;stroke-linecap:round;stroke-linejoin:round;stroke-width:4px"/><path d="M908.6,655.545a18.786,18.786,0,0,1-2.347-5.984c-1.105-5.433,1.623-8.539.148-11.631-.588-1.233-.873-2.917-5.29-3.555" style="fill:none;stroke:#283035;stroke-linecap:round;stroke-linejoin:round;stroke-width:4px"/><line x1="920.75" y1="704.886" x2="946.5" y2="704.886" style="fill:none;stroke:#283035;stroke-linecap:round;stroke-linejoin:round;stroke-width:6px"/><line x1="234.333" y1="704.886" x2="909.5" y2="704.886" style="fill:none;stroke:#283035;stroke-linecap:round;stroke-linejoin:round;stroke-width:6px"/><line x1="114.75" y1="704.886" x2="222.616" y2="704.886" style="fill:none;stroke:#283035;stroke-linecap:round;stroke-linejoin:round;stroke-width:6px"/><line x1="80.333" y1="704.886" x2="103.5" y2="704.886" style="fill:none;stroke:#283035;stroke-linecap:round;stroke-linejoin:round;stroke-width:6px"/><circle cx="505.007" cy="203.582" r="24" style="fill:#fff"/><path d="M436.111,209a8.632,8.632,0,0,1-8.538-9.692C432.238,159.7,465.127,129,505.007,129s72.769,30.7,77.433,70.308A8.631,8.631,0,0,1,573.9,209Z" style="fill:#f7b66f"/><path d="M517.007,129.944h0c-.258-.041-.519-.07-.778-.108-.909-.134-1.823-.255-2.742-.357-.418-.047-.837-.085-1.257-.125-.762-.072-1.525-.137-2.289-.181-.444-.026-.885-.059-1.33-.08-1.195-.056-2.4-.093-3.6-.093s-2.4.036-3.588.093c-.549.026-1.094.069-1.64.106-.59.041-1.18.083-1.767.138-.72.065-1.436.143-2.15.229-.349.042-.7.089-1.044.136-36.024,4.823-64.327,34.836-67.512,72.249a6.478,6.478,0,0,0,6.44,7.049H576.268a6.449,6.449,0,0,0,6.449-6.944C579.629,165.22,552.2,135.518,517.007,129.944Zm-62.976,56.985a79.3,79.3,0,0,1,50.24-53.8,79.285,79.285,0,0,1,50.294,53.8A10.762,10.762,0,0,1,544.141,200.5H464.456A10.761,10.761,0,0,1,454.031,186.929Z" style="fill:#efaa65"/><path d="M436.178,209a8.69,8.69,0,0,1-8.6-9.759C432.275,159.661,465.15,129,505.007,129s72.732,30.661,77.425,70.241a8.689,8.689,0,0,1-8.6,9.759Z" style="fill:none;stroke:#283035;stroke-linecap:round;stroke-linejoin:round;stroke-width:6px"/><line x1="505.007" x2="505.007" y2="129" style="fill:none;stroke:#283035;stroke-linejoin:round;stroke-width:6px"/></g></svg>