<svg xmlns="http://www.w3.org/2000/svg" viewBox="0 0 1001 1003"><title>112-installing</title><g style="isolation:isolate"><g style="opacity:0.39"><circle cx="178.133" cy="460.724" r="20.388" style="fill:#fff"/><circle cx="178.133" cy="460.724" r="8.738" style="fill:#fff"/><path d="M209.378,430.976l-12.612,7.282.019.032a29.053,29.053,0,0,0-2.907-2.232l.034.01L197.681,422a4.37,4.37,0,0,0-3.089-5.351l-9.847-2.638a4.369,4.369,0,0,0-5.35,3.089l-3.769,14.067.021,0a29.07,29.07,0,0,0-3.6.474l.016-.01-7.281-12.611a4.368,4.368,0,0,0-5.968-1.6l-8.828,5.1a4.367,4.367,0,0,0-1.6,5.967l7.281,12.612.016-.009a29.1,29.1,0,0,0-2.212,2.884l.006-.02-14.067-3.77a4.369,4.369,0,0,0-5.35,3.09l-2.639,9.846a4.37,4.37,0,0,0,3.09,5.351l14.066,3.769.009-.034a28.96,28.96,0,0,0,.479,3.633l-.018-.032-12.612,7.281a4.37,4.37,0,0,0-1.6,5.968l5.1,8.828a4.368,4.368,0,0,0,5.968,1.6l12.611-7.281-.028-.048a29.064,29.064,0,0,0,2.944,2.255l-.061-.016-3.769,14.066a4.369,4.369,0,0,0,3.089,5.351l9.847,2.638a4.369,4.369,0,0,0,5.35-3.089l3.769-14.067-.074-.02a28.663,28.663,0,0,0,3.706-.487l-.065.038,7.282,12.611a4.368,4.368,0,0,0,5.968,1.6l8.828-5.1a4.369,4.369,0,0,0,1.6-5.967l-7.281-12.612-.065.037a28.875,28.875,0,0,0,2.275-2.966l-.02.074,14.066,3.77a4.369,4.369,0,0,0,5.351-3.09l2.638-9.846a4.368,4.368,0,0,0-3.089-5.351L206.7,458.22l-.017.061a28.938,28.938,0,0,0-.481-3.677l.028.049,12.612-7.281a4.37,4.37,0,0,0,1.6-5.968l-5.1-8.828A4.369,4.369,0,0,0,209.378,430.976Z" transform="translate(0.5 0.5)" style="fill:#fff"/></g><circle cx="302.744" cy="222.858" r="51.548" style="fill:#fff;opacity:0.39"/><polygon points="302.036 223.418 329.883 207.236 329.797 237.509 301.95 253.692 302.036 223.418" style="fill:none;stroke:#1e223b;stroke-linecap:round;stroke-linejoin:round;stroke-width:2px"/><polygon points="275.69 208.208 303.537 192.025 329.883 207.236 302.036 223.418 275.69 208.208" style="fill:none;stroke:#1e223b;stroke-linecap:round;stroke-linejoin:round;stroke-width:2px"/><polygon points="275.69 208.208 303.537 192.025 329.883 207.236 302.036 223.418 275.69 208.208" style="fill:#028b9e;stroke:#1e223b;stroke-linecap:round;stroke-linejoin:round;stroke-width:2px"/><polygon points="302.036 223.418 301.95 253.692 275.604 238.481 275.69 208.208 302.036 223.418" style="fill:#028b9e;stroke:#1e223b;stroke-linecap:round;stroke-linejoin:round;stroke-width:2px;opacity:0.4"/><polygon points="302.036 223.418 301.95 253.692 275.604 238.481 275.69 208.208 302.036 223.418" style="fill:none;stroke:#1e223b;stroke-linecap:round;stroke-linejoin:round;stroke-width:2px"/><circle cx="302.744" cy="222.858" r="51.548" style="fill:none;stroke:#1e223b;stroke-linecap:round;stroke-linejoin:round;stroke-width:2px"/><rect x="361.5" y="623.737" width="318" height="238" rx="18" style="fill:#161616;stroke:#1e223b;stroke-miterlimit:10;opacity:0.11;mix-blend-mode:multiply"/><rect x="361.5" y="609.737" width="318" height="14" rx="7" style="fill:#161616;stroke:#1e223b;stroke-miterlimit:10;opacity:0.11;mix-blend-mode:multiply"/><rect x="351.5" y="615.737" width="318" height="238" rx="18" style="fill:#2f4584"/><rect x="351.5" y="615.737" width="318" height="232" rx="18" style="fill:#fff"/><path d="M557.5,833.066H556a6,6,0,0,0-6,6v7.172a3,3,0,0,1-6,0v-7.172a6,6,0,0,0-6-6h-1.5a6,6,0,0,0-6,6v7.172a3,3,0,0,1-6,0v-7.172a6,6,0,0,0-6-6H517a6,6,0,0,0-6,6v7.172a3,3,0,0,1-6,0v-45a6,6,0,0,0-6-6h-1.5a6,6,0,0,0-6,6v78.433l-11.508-19.933a6,6,0,0,0-8.2-2.2l-1.3.75a6,6,0,0,0-2.2,8.2l24.044,41.645a12,12,0,0,0,11.156,7.6h2v24.653h-3.949v24.866H499.61a6.486,6.486,0,0,0-6.486,6.486V1002h68.757V971.738a6.486,6.486,0,0,0-6.486-6.486h-1.943V940.386H549.5V915.733h2a12,12,0,0,0,12-12V839.066A6,6,0,0,0,557.5,833.066Z" transform="translate(0.5 0.5)" style="fill:#161616;stroke:#1e223b;stroke-miterlimit:10;opacity:0.11;mix-blend-mode:multiply"/><path d="M442.564,829.237a12,12,0,0,0,11.947-10.93l22.121-38.315a6,6,0,0,0-2.2-8.2l-1.3-.75a6,6,0,0,0-8.2,2.2l-10.375,17.971V714.741a6,6,0,0,0-6-6h-1.5a6,6,0,0,0-6,6v45a3,3,0,0,1-6,0V706.047a6,6,0,0,0-6-6h-1.5a6,6,0,0,0-6,6v53.695a3,3,0,0,1-6,0v-45a6,6,0,0,0-6-6h-1.5a6,6,0,0,0-6,6v45a3,3,0,0,1-6,0v-30.75a6,6,0,0,0-6-6h-1.5a6,6,0,0,0-6,6v88.245a12,12,0,0,0,12,12h2.58V853.89h-4.529v24.865h-1.943a6.487,6.487,0,0,0-6.487,6.487V1002h68.758V885.242a6.487,6.487,0,0,0-6.487-6.487h-1.943V853.89h-3.369V829.237Z" transform="translate(0.5 0.5)" style="fill:#161616;stroke:#1e223b;stroke-miterlimit:10;opacity:0.11;mix-blend-mode:multiply"/><rect x="366" y="633.237" width="289" height="121" rx="4" style="fill:#1e223b;stroke:#1e223b;stroke-miterlimit:11;stroke-width:2px;opacity:0.15"/><rect x="351.5" y="615.737" width="318" height="232" rx="18" style="fill:none;stroke:#1e223b;stroke-linecap:round;stroke-linejoin:round;stroke-width:2px"/><rect x="351.5" y="615.737" width="318" height="238" rx="18" style="fill:none;stroke:#1e223b;stroke-linecap:round;stroke-linejoin:round;stroke-width:2px"/><rect x="351.5" y="383.737" width="318" height="232" rx="18" style="fill:#2f4584"/><rect x="351.5" y="383.737" width="318" height="232" rx="18" style="fill:none;stroke:#1e223b;stroke-linecap:round;stroke-linejoin:round;stroke-width:2px"/><rect x="400" y="346.237" width="220" height="306" rx="12" transform="translate(1009.738 -10.263) rotate(90)" style="fill:#fff"/><rect x="424" y="370.237" width="172" height="258" transform="translate(1009.738 -10.263) rotate(90)" style="fill:#ff5855;stroke:#1e223b;stroke-miterlimit:10"/><rect x="400" y="346.237" width="220" height="306" rx="12" transform="translate(1009.738 -10.263) rotate(90)" style="fill:none;stroke:#1e223b;stroke-linecap:round;stroke-linejoin:round;stroke-width:2px"/><rect x="424" y="370.237" width="172" height="258" transform="translate(1009.738 -10.263) rotate(90)" style="fill:none;stroke:#1e223b;stroke-linecap:round;stroke-linejoin:round;stroke-width:2px"/><g style="opacity:0.1"><rect x="467.5" y="763.737" width="86" height="60" rx="4.25" style="fill:#1e223b"/></g><rect x="467.5" y="763.737" width="86" height="60" rx="4.25" style="fill:none;stroke:#1e223b;stroke-linecap:round;stroke-linejoin:round;stroke-width:2px"/><rect x="473" y="845.737" width="76" height="8" style="fill:#263c72"/><rect x="473" y="845.737" width="76" height="8" style="fill:none;stroke:#1e223b;stroke-linecap:round;stroke-linejoin:round;stroke-width:2px"/><rect x="417.5" y="359.737" width="200" height="224" rx="6" style="fill:#161616;stroke:#1e223b;stroke-miterlimit:10;opacity:0.11;mix-blend-mode:multiply"/><rect x="412" y="355.737" width="200" height="224" rx="6" style="fill:#fff"/><path d="M412,545.737H612a0,0,0,0,1,0,0v28a6,6,0,0,1-6,6H418a6,6,0,0,1-6-6v-28A0,0,0,0,1,412,545.737Z" style="fill:#efefef"/><rect x="412" y="355.737" width="200" height="224" rx="6" style="fill:none;stroke:#1e223b;stroke-linecap:round;stroke-linejoin:round;stroke-width:2px"/><path d="M417.427,355.737H606.573A5.427,5.427,0,0,1,612,361.165v12.573a0,0,0,0,1,0,0H412a0,0,0,0,1,0,0V361.165A5.427,5.427,0,0,1,417.427,355.737Z" style="fill:#363d56"/><path d="M417.427,355.737H606.573A5.427,5.427,0,0,1,612,361.165v12.573a0,0,0,0,1,0,0H412a0,0,0,0,1,0,0V361.165A5.427,5.427,0,0,1,417.427,355.737Z" style="fill:none;stroke:#1e223b;stroke-linecap:round;stroke-linejoin:round;stroke-width:2px"/><rect x="412" y="373.737" width="200" height="8" style="fill:#424960"/><rect x="412" y="373.737" width="200" height="8" style="fill:none;stroke:#1e223b;stroke-linecap:round;stroke-linejoin:round;stroke-width:2px"/><circle cx="423.167" cy="364.737" r="3" style="fill:#f73e39"/><circle cx="423.167" cy="364.737" r="3" style="fill:none;stroke:#1e223b;stroke-linecap:round;stroke-linejoin:round;stroke-width:2px"/><circle cx="435.435" cy="364.737" r="3" style="fill:#383838"/><circle cx="435.435" cy="364.737" r="3" style="fill:none;stroke:#1e223b;stroke-linecap:round;stroke-linejoin:round;stroke-width:2px"/><circle cx="446.662" cy="364.737" r="3" style="fill:#c6c6c6"/><circle cx="446.662" cy="364.737" r="3" style="fill:none;stroke:#1e223b;stroke-linecap:round;stroke-linejoin:round;stroke-width:2px"/><rect x="460.5" y="361.737" width="68" height="6" rx="3" style="fill:#8289a3;opacity:0.28"/><circle cx="178.133" cy="460.724" r="20.388" style="fill:none;stroke:#1e223b;stroke-linecap:round;stroke-linejoin:round;stroke-width:2px"/><circle cx="178.133" cy="460.724" r="8.738" style="fill:none;stroke:#1e223b;stroke-linecap:round;stroke-linejoin:round;stroke-width:2px"/><path d="M209.378,430.976l-12.612,7.282.019.032a29.053,29.053,0,0,0-2.907-2.232l.034.01L197.681,422a4.37,4.37,0,0,0-3.089-5.351l-9.847-2.638a4.369,4.369,0,0,0-5.35,3.089l-3.769,14.067.021,0a29.07,29.07,0,0,0-3.6.474l.016-.01-7.281-12.611a4.368,4.368,0,0,0-5.968-1.6l-8.828,5.1a4.367,4.367,0,0,0-1.6,5.967l7.281,12.612.016-.009a29.1,29.1,0,0,0-2.212,2.884l.006-.02-14.067-3.77a4.369,4.369,0,0,0-5.35,3.09l-2.639,9.846a4.37,4.37,0,0,0,3.09,5.351l14.066,3.769.009-.034a28.96,28.96,0,0,0,.479,3.633l-.018-.032-12.612,7.281a4.37,4.37,0,0,0-1.6,5.968l5.1,8.828a4.368,4.368,0,0,0,5.968,1.6l12.611-7.281-.028-.048a29.064,29.064,0,0,0,2.944,2.255l-.061-.016-3.769,14.066a4.369,4.369,0,0,0,3.089,5.351l9.847,2.638a4.369,4.369,0,0,0,5.35-3.089l3.769-14.067-.074-.02a28.663,28.663,0,0,0,3.706-.487l-.065.038,7.282,12.611a4.368,4.368,0,0,0,5.968,1.6l8.828-5.1a4.369,4.369,0,0,0,1.6-5.967l-7.281-12.612-.065.037a28.875,28.875,0,0,0,2.275-2.966l-.02.074,14.066,3.77a4.369,4.369,0,0,0,5.351-3.09l2.638-9.846a4.368,4.368,0,0,0-3.089-5.351L206.7,458.22l-.017.061a28.938,28.938,0,0,0-.481-3.677l.028.049,12.612-7.281a4.37,4.37,0,0,0,1.6-5.968l-5.1-8.828A4.369,4.369,0,0,0,209.378,430.976Z" transform="translate(0.5 0.5)" style="fill:none;stroke:#1e223b;stroke-linecap:round;stroke-linejoin:round;stroke-width:2px"/><g style="opacity:0.32"><circle cx="451.942" cy="415.293" r="7.72" style="fill:none;stroke:#1e223b;stroke-linecap:round;stroke-linejoin:round"/><circle cx="451.942" cy="415.293" r="3.309" style="fill:none;stroke:#1e223b;stroke-linecap:round;stroke-linejoin:round"/><path d="M467.774,415.461l-5.327-1.427,0,.014a10.855,10.855,0,0,0-.18-1.376l.006.011,4.776-2.757a1.654,1.654,0,0,0,.6-2.26l-1.93-3.342a1.653,1.653,0,0,0-2.259-.606l-4.776,2.757,0,.007a10.927,10.927,0,0,0-1.092-.838l.007,0,1.427-5.327a1.654,1.654,0,0,0-1.169-2.026l-3.729-1a1.655,1.655,0,0,0-2.026,1.17l-1.427,5.326.007,0a11.054,11.054,0,0,0-1.365.18l.007,0-2.757-4.775a1.655,1.655,0,0,0-2.26-.606l-3.343,1.93a1.655,1.655,0,0,0-.605,2.26l2.757,4.776.011-.007a11.1,11.1,0,0,0-.844,1.1l0-.014-5.326-1.427a1.654,1.654,0,0,0-2.026,1.17l-1,3.728a1.655,1.655,0,0,0,1.17,2.027l5.326,1.427.006-.021a10.929,10.929,0,0,0,.184,1.392l-.012-.02-4.776,2.757a1.654,1.654,0,0,0-.605,2.26l1.93,3.342a1.654,1.654,0,0,0,2.26.606l4.775-2.757-.014-.025a10.861,10.861,0,0,0,1.122.861l-.027-.007-1.427,5.327a1.654,1.654,0,0,0,1.17,2.026l3.728,1a1.655,1.655,0,0,0,2.026-1.17L452.2,425.8l-.027-.007a10.9,10.9,0,0,0,1.4-.185l-.025.015,2.757,4.775a1.655,1.655,0,0,0,2.26.606l3.343-1.93a1.655,1.655,0,0,0,.605-2.26l-2.757-4.776-.02.012a10.978,10.978,0,0,0,.855-1.113l0,.02,5.326,1.428a1.655,1.655,0,0,0,2.026-1.17l1-3.729A1.654,1.654,0,0,0,467.774,415.461Z" transform="translate(0.5 0.5)" style="fill:none;stroke:#1e223b;stroke-linecap:round;stroke-linejoin:round"/></g><g style="opacity:0.49"><circle cx="832.171" cy="251.63" r="19.096" style="fill:#fff"/><circle cx="832.171" cy="251.63" r="8.184" style="fill:#fff"/><path d="M861.405,223.736l-11.813,6.82.018.03a27.136,27.136,0,0,0-2.723-2.09l.032.009,3.53-13.176a4.092,4.092,0,0,0-2.893-5.011l-9.223-2.471a4.092,4.092,0,0,0-5.012,2.893l-3.53,13.175.02.006a27.109,27.109,0,0,0-3.376.443l.015-.009-6.82-11.812a4.093,4.093,0,0,0-5.59-1.5l-8.269,4.774a4.092,4.092,0,0,0-1.5,5.59l6.82,11.812.015-.009a27.076,27.076,0,0,0-2.072,2.7l0-.019-13.175-3.531a4.093,4.093,0,0,0-5.012,2.894l-2.471,9.223a4.092,4.092,0,0,0,2.894,5.011l13.175,3.53.008-.031a27.174,27.174,0,0,0,.449,3.4l-.017-.03-11.813,6.82a4.091,4.091,0,0,0-1.5,5.589l4.774,8.269a4.093,4.093,0,0,0,5.59,1.5l11.812-6.82-.026-.046a27.08,27.08,0,0,0,2.757,2.113l-.057-.016-3.53,13.176a4.091,4.091,0,0,0,2.893,5.011l9.223,2.471a4.092,4.092,0,0,0,5.012-2.893l3.53-13.175-.069-.019a26.958,26.958,0,0,0,3.47-.456l-.06.035,6.82,11.812a4.092,4.092,0,0,0,5.59,1.5l8.268-4.774a4.091,4.091,0,0,0,1.5-5.59l-6.82-11.812-.06.035a27.1,27.1,0,0,0,2.13-2.778l-.018.069,13.175,3.531a4.093,4.093,0,0,0,5.012-2.894l2.471-9.222a4.093,4.093,0,0,0-2.894-5.012l-13.175-3.53-.015.057a27.058,27.058,0,0,0-.451-3.444l.026.045,11.813-6.82a4.091,4.091,0,0,0,1.5-5.589L867,225.234A4.093,4.093,0,0,0,861.405,223.736Z" transform="translate(0.5 0.5)" style="fill:#fff"/></g><circle cx="832.178" cy="251.629" r="19.096" style="fill:none;stroke:#1e223b;stroke-linecap:round;stroke-linejoin:round;stroke-width:2px"/><circle cx="832.178" cy="251.629" r="8.184" style="fill:none;stroke:#1e223b;stroke-linecap:round;stroke-linejoin:round;stroke-width:2px"/><path d="M872.073,252.784l-13.175-3.53-.009.033a27.165,27.165,0,0,0-.447-3.4l.016.028,11.813-6.82a4.091,4.091,0,0,0,1.5-5.589L867,225.234a4.093,4.093,0,0,0-5.59-1.5l-11.813,6.82.01.018a26.869,26.869,0,0,0-2.7-2.074l.017,0,3.53-13.176a4.092,4.092,0,0,0-2.894-5.011l-9.222-2.471a4.092,4.092,0,0,0-5.012,2.893l-3.53,13.175.017,0a27.084,27.084,0,0,0-3.376.445l.018-.01-6.82-11.812a4.093,4.093,0,0,0-5.59-1.5l-8.269,4.774a4.092,4.092,0,0,0-1.5,5.59l6.82,11.812.028-.016a27.189,27.189,0,0,0-2.089,2.723l.009-.033-13.175-3.531a4.093,4.093,0,0,0-5.012,2.894l-2.471,9.222a4.093,4.093,0,0,0,2.893,5.012l13.176,3.53.013-.05a27.229,27.229,0,0,0,.456,3.443l-.029-.051-11.813,6.82a4.091,4.091,0,0,0-1.5,5.589l4.774,8.269a4.093,4.093,0,0,0,5.59,1.5l11.812-6.82-.035-.062a26.977,26.977,0,0,0,2.777,2.131l-.068-.018-3.53,13.175a4.092,4.092,0,0,0,2.893,5.012l9.223,2.471a4.09,4.09,0,0,0,5.011-2.893l3.531-13.175-.068-.018a27.1,27.1,0,0,0,3.471-.458l-.062.036,6.82,11.812a4.091,4.091,0,0,0,5.59,1.5l8.268-4.774a4.091,4.091,0,0,0,1.5-5.59l-6.82-11.812-.051.03a27.068,27.068,0,0,0,2.116-2.755l-.013.051,13.175,3.531a4.093,4.093,0,0,0,5.012-2.894l2.471-9.222A4.093,4.093,0,0,0,872.073,252.784Z" transform="translate(0.5 0.5)" style="fill:none;stroke:#1e223b;stroke-linecap:round;stroke-linejoin:round;stroke-width:2px"/><path d="M586.97,252.788h-26.2L533.43,271.015V252.788H514.064a9.113,9.113,0,0,1-9.113-9.113V193.552a9.113,9.113,0,0,1,9.113-9.113H586.97a9.113,9.113,0,0,1,9.114,9.113v50.123A9.113,9.113,0,0,1,586.97,252.788Z" transform="translate(0.5 0.5)" style="fill:#fff"/><path d="M586.97,252.788h-26.2L533.43,271.015V252.788H514.064a9.113,9.113,0,0,1-9.113-9.113V193.552a9.113,9.113,0,0,1,9.113-9.113H586.97a9.113,9.113,0,0,1,9.114,9.113v50.123A9.113,9.113,0,0,1,586.97,252.788Z" transform="translate(0.5 0.5)" style="fill:none;stroke:#1e223b;stroke-linecap:round;stroke-linejoin:round;stroke-width:2px"/><path d="M587.9,175.157h16.966l17.7,11.8v-11.8H635.1a5.9,5.9,0,0,0,5.9-5.9V136.8a5.9,5.9,0,0,0-5.9-5.9H587.9a5.9,5.9,0,0,0-5.9,5.9v32.455A5.9,5.9,0,0,0,587.9,175.157Z" transform="translate(0.5 0.5)" style="fill:#fff;opacity:0.5"/><path d="M587.9,175.157h16.966l17.7,11.8v-11.8H635.1a5.9,5.9,0,0,0,5.9-5.9V136.8a5.9,5.9,0,0,0-5.9-5.9H587.9a5.9,5.9,0,0,0-5.9,5.9v32.455A5.9,5.9,0,0,0,587.9,175.157Z" transform="translate(0.5 0.5)" style="fill:none;stroke:#1e223b;stroke-linecap:round;stroke-linejoin:round;stroke-width:2px"/><path d="M649.464,811.47a13.232,13.232,0,1,1-13.232-13.233A13.232,13.232,0,0,1,649.464,811.47Z" transform="translate(0.5 0.5)" style="fill:#dd4814"/><path d="M627.234,809.7A1.767,1.767,0,1,0,629,811.47,1.767,1.767,0,0,0,627.234,809.7Zm12.614,8.029a1.766,1.766,0,1,0,2.412.647A1.767,1.767,0,0,0,639.848,817.732Zm-8.776-6.263a5.15,5.15,0,0,1,2.194-4.221l-1.292-2.164a7.683,7.683,0,0,0-3.173,4.462,2.481,2.481,0,0,1,0,3.847,7.683,7.683,0,0,0,3.173,4.462l1.292-2.164A5.15,5.15,0,0,1,631.072,811.469Zm5.16-5.16a5.16,5.16,0,0,1,5.139,4.7l2.518-.037a7.654,7.654,0,0,0-2.28-4.978,2.482,2.482,0,0,1-3.327-1.923,7.672,7.672,0,0,0-5.451.516l1.227,2.2A5.147,5.147,0,0,1,636.232,806.309Zm0,10.321a5.147,5.147,0,0,1-2.174-.48l-1.227,2.2a7.677,7.677,0,0,0,5.451.515,2.482,2.482,0,0,1,3.327-1.923,7.654,7.654,0,0,0,2.28-4.978l-2.518-.037A5.159,5.159,0,0,1,636.232,816.63Zm3.616-11.423a1.766,1.766,0,1,0-.647-2.413A1.765,1.765,0,0,0,639.848,805.207Z" transform="translate(0.5 0.5)" style="fill:#fff"/><polygon points="193.132 692.759 221.189 676.453 221.103 706.956 193.045 723.261 193.132 692.759" style="fill:#777bb4"/><polygon points="193.132 692.759 221.189 676.453 221.103 706.956 193.045 723.261 193.132 692.759" style="fill:none;stroke:#1e223b;stroke-linecap:round;stroke-linejoin:round;stroke-width:2px"/><polygon points="166.587 677.433 194.644 661.127 221.189 676.453 193.132 692.759 166.587 677.433" style="fill:#ff5855;stroke:#1e223b;stroke-miterlimit:10;opacity:0.88"/><polygon points="193.132 692.759 193.045 723.261 166.5 707.935 166.587 677.433 193.132 692.759" style="fill:#0270bb"/><polygon points="166.587 677.433 194.644 661.127 221.189 676.453 193.132 692.759 166.587 677.433" style="fill:none;stroke:#1e223b;stroke-linecap:round;stroke-linejoin:round;stroke-width:2px"/><polygon points="193.132 692.759 193.045 723.261 166.5 707.935 166.587 677.433 193.132 692.759" style="fill:none;stroke:#1e223b;stroke-linecap:round;stroke-linejoin:round;stroke-width:2px"/><circle cx="172.545" cy="643.737" r="6" style="fill:#fff;opacity:0.59"/><circle cx="172.545" cy="643.737" r="6" style="fill:none;stroke:#1e223b;stroke-linecap:round;stroke-linejoin:round;stroke-width:2px"/><circle cx="193.045" cy="643.737" r="6" style="fill:#fff;opacity:0.59"/><circle cx="193.045" cy="643.737" r="6" style="fill:none;stroke:#1e223b;stroke-linecap:round;stroke-linejoin:round;stroke-width:2px"/><circle cx="213.545" cy="643.737" r="6" style="fill:#fff;opacity:0.59"/><circle cx="897.25" cy="520.99" r="39.5" style="fill:#fff;opacity:0.32"/><circle cx="213.545" cy="643.737" r="6" style="fill:none;stroke:#1e223b;stroke-linecap:round;stroke-linejoin:round;stroke-width:2px"/><polygon points="897.792 521.419 876.454 509.019 876.519 532.217 897.858 544.617 897.792 521.419" style="fill:#0270bb;opacity:0.12"/><polygon points="897.792 521.419 876.454 509.019 876.519 532.217 897.858 544.617 897.792 521.419" style="fill:none;stroke:#1e223b;stroke-linecap:round;stroke-linejoin:round;stroke-width:2px"/><polygon points="917.98 509.764 896.642 497.363 876.454 509.019 897.792 521.419 917.98 509.764" style="fill:#0270bb;opacity:0.47000000000000003"/><polygon points="917.98 509.764 896.642 497.363 876.454 509.019 897.792 521.419 917.98 509.764" style="fill:none;stroke:#1e223b;stroke-linecap:round;stroke-linejoin:round;stroke-width:2px"/><polygon points="897.792 521.419 897.858 544.617 918.046 532.962 917.98 509.764 897.792 521.419" style="fill:#fff;stroke:#1e223b;stroke-linecap:round;stroke-linejoin:round;stroke-width:2px"/><polygon points="897.792 521.419 897.858 544.617 918.046 532.962 917.98 509.764 897.792 521.419" style="fill:none;stroke:#1e223b;stroke-linecap:round;stroke-linejoin:round;stroke-width:2px"/><circle cx="897.25" cy="520.99" r="39.5" style="fill:none;stroke:#1e223b;stroke-linecap:round;stroke-linejoin:round;stroke-width:2px"/><rect x="698.509" y="274.479" width="113.356" height="59.443" rx="11.889" style="fill:#777bb4"/><rect x="698.509" y="274.479" width="113.356" height="59.443" rx="11.889" style="fill:none;stroke:#1e223b;stroke-linecap:round;stroke-linejoin:round;stroke-width:2px"/><rect x="796.602" y="545.49" width="88.078" height="45.209" rx="9.042" style="fill:#0270bb"/><rect x="796.602" y="545.49" width="88.078" height="45.209" rx="9.042" style="fill:none;stroke:#1e223b;stroke-linecap:round;stroke-linejoin:round;stroke-width:2px"/><path d="M809.684,567.321c0-6.462,4.8-10.823,10.979-10.823a9.382,9.382,0,0,1,8.376,4.674l-3.106,1.631a6.183,6.183,0,0,0-5.27-3.043c-4.14,0-7.215,3.137-7.215,7.561,0,4.36,3.075,7.559,7.215,7.559a6.254,6.254,0,0,0,5.27-3.043l3.137,1.569a9.556,9.556,0,0,1-8.407,4.737C814.483,578.143,809.684,573.751,809.684,567.321Z" transform="translate(0.5 0.5)" style="fill:#fff"/><path d="M832.988,574.817l2.071-2.854a8.983,8.983,0,0,0,6.619,2.917c3.011,0,4.172-1.474,4.172-2.886,0-4.392-12.172-1.662-12.172-9.347,0-3.483,3.012-6.149,7.624-6.149a10.829,10.829,0,0,1,7.811,2.949l-2.071,2.728a8.533,8.533,0,0,0-6.086-2.415c-2.133,0-3.513,1.067-3.513,2.6,0,3.922,12.171,1.506,12.171,9.286,0,3.482-2.478,6.493-8.093,6.493A11.438,11.438,0,0,1,832.988,574.817Z" transform="translate(0.5 0.5)" style="fill:#fff"/><path d="M853.972,574.817l2.071-2.854a8.985,8.985,0,0,0,6.619,2.917c3.011,0,4.172-1.474,4.172-2.886,0-4.392-12.172-1.662-12.172-9.347,0-3.483,3.012-6.149,7.624-6.149a10.829,10.829,0,0,1,7.811,2.949l-2.071,2.728a8.533,8.533,0,0,0-6.086-2.415c-2.133,0-3.513,1.067-3.513,2.6,0,3.922,12.171,1.506,12.171,9.286,0,3.482-2.478,6.493-8.093,6.493A11.438,11.438,0,0,1,853.972,574.817Z" transform="translate(0.5 0.5)" style="fill:#fff"/><path d="M714.88,316.976v-26.65h11.747c5.593,0,8.669,3.8,8.669,8.35,0,4.515-3.115,8.311-8.669,8.311h-7.072v9.989Zm15.622-18.3c0-2.557-1.878-4.234-4.515-4.234h-6.432v8.43h6.432C728.624,302.872,730.5,301.193,730.5,298.676Z" transform="translate(0.5 0.5)" style="fill:#fff"/><path d="M760.74,316.976V305.309H746.876v11.667H742.2v-26.65h4.674v10.867H760.74V290.326h4.674v26.65Z" transform="translate(0.5 0.5)" style="fill:#fff"/><path d="M774.077,316.976v-26.65h11.746c5.593,0,8.67,3.8,8.67,8.35,0,4.515-3.116,8.311-8.67,8.311h-7.072v9.989Zm15.621-18.3c0-2.557-1.878-4.234-4.515-4.234h-6.432v8.43h6.432C787.82,302.872,789.7,301.193,789.7,298.676Z" transform="translate(0.5 0.5)" style="fill:#fff"/><path d="M578.563,554.487c.281.407.453.375.671.282s11.469-3.891,11.813-4.016.234-.234.125-.406-3.859-5.266-4.047-5.563-.281-.234-.578-.14l-11.926,3.1s3.66,6.334,3.942,6.74Z" transform="translate(0.5 0.5)" style="fill:#f35045"/><path d="M592,549.3v-5.963l-3.709.988c1.011,1.352,2.591,3.468,3.709,4.975Z" transform="translate(0.5 0.5)" style="fill:#f35045"/><path d="M588.28,536.983c-.184.041-4.254.777-4.5.81s-.167.176-.067.318l3.581,4.914s4.379-1.087,4.647-1.145l.063-.015v-.651c-.8-1.009-2.964-3.757-3.152-4.014-.225-.309-.384-.259-.568-.217Z" transform="translate(0.5 0.5)" style="fill:#f35045"/><path d="M562.674,529.264c.881-.04.961.161,1.348.735l9.728,16.262,12.23-2.93c-.677-.961-3.754-5.322-4.051-5.738-.334-.468.008-.686.551-.777s5.223-.878,5.624-.936.719-.2,1.371.585c.333.4,1.464,1.809,2.525,3.129v-7.607a6.762,6.762,0,0,0-6.75-6.75h-22.5a6.5,6.5,0,0,0-4.769,1.981,6.626,6.626,0,0,0-1.62,2.538c2.205-.181,5.7-.464,6.313-.492Z" transform="translate(0.5 0.5)" style="fill:#f35045"/><path d="M579.666,556.676c-1.032.313-1.494.468-2.166-.47-.5-.7-3.224-5.6-4.558-8.019-2.525.662-7.146,1.868-8.478,2.188a1.642,1.642,0,0,1-2.07-.948c-.15-.337-3.963-8.558-6.394-13.832v18.892a6.762,6.762,0,0,0,6.75,6.75h22.5a6.76,6.76,0,0,0,6.75-6.75v-2.219c-2.762,1.01-11.639,4.2-12.334,4.408Z" transform="translate(0.5 0.5)" style="fill:#f35045"/><path d="M564.5,548.481c.365-.084,7.215-1.723,7.362-1.754s.24-.115.083-.387l-9.131-15.762c-.083-.142-.059-.19-.284-.178-.2.011-5.279.464-6.455.562a7.039,7.039,0,0,0-.065.75c1.194,2.443,8.044,16.57,8.082,16.685s.042.168.408.084Z" transform="translate(0.5 0.5)" style="fill:#f35045"/><line x1="474.5" y1="411.737" x2="568.5" y2="411.737" style="fill:none;stroke:#1e223b;stroke-linecap:round;stroke-linejoin:round;stroke-width:2px;opacity:0.32"/><line x1="474.5" y1="419.737" x2="534.5" y2="419.737" style="fill:none;stroke:#1e223b;stroke-linecap:round;stroke-linejoin:round;stroke-width:2px;opacity:0.32"/><line x1="446.5" y1="458.737" x2="540.5" y2="458.737" style="fill:none;stroke:#1e223b;stroke-linecap:round;stroke-linejoin:round;stroke-width:2px;opacity:0.15"/><line x1="446.5" y1="467.404" x2="506.5" y2="467.404" style="fill:none;stroke:#1e223b;stroke-linecap:round;stroke-linejoin:round;stroke-width:2px;opacity:0.32"/><line x1="494.5" y1="476.071" x2="529.5" y2="476.071" style="fill:none;stroke:#1e223b;stroke-linecap:round;stroke-linejoin:round;stroke-width:2px;opacity:0.32"/><line x1="446.5" y1="476.071" x2="488.5" y2="476.071" style="fill:none;stroke:#1e223b;stroke-linecap:round;stroke-linejoin:round;stroke-width:2px;opacity:0.26"/><line x1="446.5" y1="484.737" x2="482.5" y2="484.737" style="fill:none;stroke:#1e223b;stroke-linecap:round;stroke-linejoin:round;stroke-width:2px;opacity:0.15"/><path d="M450,500.571a4,4,0,0,0,0,8h80.667v-8Z" transform="translate(0.5 0.5)" style="fill:#4ad3a5;stroke:#1e223b;stroke-miterlimit:10"/><rect x="446.5" y="501.071" width="134" height="8" rx="4" style="fill:none;stroke:#1e223b;stroke-linecap:round;stroke-linejoin:round"/><rect x="371.5" y="605.737" width="278" height="13" rx="2.25" style="fill:#263c72"/><rect x="371.5" y="605.737" width="278" height="13" style="fill:none;stroke:#1e223b;stroke-linecap:round;stroke-linejoin:round;stroke-width:2px"/><rect x="627.5" y="637.737" width="22" height="12" rx="3" style="fill:#363d56"/><rect x="595.5" y="637.737" width="22" height="12" rx="3" style="fill:#363d56"/><rect x="563.5" y="637.737" width="22" height="12" rx="3" style="fill:#363d56"/><rect x="531.5" y="637.737" width="22" height="12" rx="3" style="fill:#363d56"/><rect x="499.5" y="637.737" width="22" height="12" rx="3" style="fill:#363d56"/><rect x="467.5" y="637.737" width="22" height="12" rx="3" style="fill:#363d56"/><rect x="435.5" y="637.737" width="22" height="12" rx="3" style="fill:#363d56"/><rect x="403.5" y="637.737" width="22" height="12" rx="3" style="fill:#363d56"/><rect x="371.5" y="637.737" width="22" height="12" rx="3" style="fill:#363d56"/><rect x="563.5" y="663.214" width="22" height="22" rx="3" style="fill:#363d56"/><rect x="531.5" y="663.214" width="22" height="22" rx="3" style="fill:#363d56"/><rect x="499.5" y="663.214" width="22" height="22" rx="3" style="fill:#363d56"/><rect x="467.5" y="663.214" width="22" height="22" rx="3" style="fill:#363d56"/><rect x="435.5" y="663.214" width="22" height="22" rx="3" style="fill:#363d56"/><rect x="403.5" y="663.214" width="22" height="22" rx="3" style="fill:#363d56"/><rect x="371.5" y="663.214" width="22" height="22" rx="3" style="fill:#363d56"/><rect x="627.5" y="663.214" width="22" height="53.512" rx="3" style="fill:#363d56"/><path d="M614,662.714H598a3,3,0,0,0-3,3v25.512a3,3,0,0,1-3,3H566a3,3,0,0,0-3,3v16a3,3,0,0,0,3,3h48a3,3,0,0,0,3-3V665.714A3,3,0,0,0,614,662.714Z" transform="translate(0.5 0.5)" style="fill:#363d56"/><rect x="531.5" y="694.726" width="22" height="22" rx="3" style="fill:#363d56"/><rect x="499.5" y="694.726" width="22" height="22" rx="3" style="fill:#363d56"/><rect x="467.5" y="694.726" width="22" height="22" rx="3" style="fill:#363d56"/><rect x="435.5" y="694.726" width="22" height="22" rx="3" style="fill:#363d56"/><rect x="371.5" y="694.726" width="54" height="22" rx="3" style="fill:#363d56"/><rect x="627.5" y="726.237" width="22" height="22" rx="3" style="fill:#363d56"/><rect x="595.5" y="726.237" width="22" height="22" rx="3" style="fill:#363d56"/><rect x="563.5" y="726.237" width="22" height="22" rx="3" style="fill:#363d56"/><rect x="467.5" y="726.237" width="86" height="22" rx="3" style="fill:#363d56"/><rect x="435.5" y="726.237" width="22" height="22" rx="3" style="fill:#363d56"/><rect x="403.5" y="726.237" width="22" height="22" rx="3" style="fill:#363d56"/><rect x="371.5" y="726.237" width="22" height="22" rx="3" style="fill:#363d56"/><rect x="627.5" y="637.737" width="22" height="12" rx="3" style="fill:none;stroke:#1e223b;stroke-linecap:round;stroke-linejoin:round;stroke-width:2px"/><rect x="595.5" y="637.737" width="22" height="12" rx="3" style="fill:none;stroke:#1e223b;stroke-linecap:round;stroke-linejoin:round;stroke-width:2px"/><rect x="563.5" y="637.737" width="22" height="12" rx="3" style="fill:none;stroke:#1e223b;stroke-linecap:round;stroke-linejoin:round;stroke-width:2px"/><rect x="531.5" y="637.737" width="22" height="12" rx="3" style="fill:none;stroke:#1e223b;stroke-linecap:round;stroke-linejoin:round;stroke-width:2px"/><rect x="499.5" y="637.737" width="22" height="12" rx="3" style="fill:none;stroke:#1e223b;stroke-linecap:round;stroke-linejoin:round;stroke-width:2px"/><rect x="467.5" y="637.737" width="22" height="12" rx="3" style="fill:none;stroke:#1e223b;stroke-linecap:round;stroke-linejoin:round;stroke-width:2px"/><rect x="435.5" y="637.737" width="22" height="12" rx="3" style="fill:none;stroke:#1e223b;stroke-linecap:round;stroke-linejoin:round;stroke-width:2px"/><rect x="403.5" y="637.737" width="22" height="12" rx="3" style="fill:none;stroke:#1e223b;stroke-linecap:round;stroke-linejoin:round;stroke-width:2px"/><rect x="371.5" y="637.737" width="22" height="12" rx="3" style="fill:none;stroke:#1e223b;stroke-linecap:round;stroke-linejoin:round;stroke-width:2px"/><rect x="563.5" y="663.214" width="22" height="22" rx="3" style="fill:none;stroke:#1e223b;stroke-linecap:round;stroke-linejoin:round;stroke-width:2px"/><rect x="531.5" y="663.214" width="22" height="22" rx="3" style="fill:none;stroke:#1e223b;stroke-linecap:round;stroke-linejoin:round;stroke-width:2px"/><rect x="499.5" y="663.214" width="22" height="22" rx="3" style="fill:none;stroke:#1e223b;stroke-linecap:round;stroke-linejoin:round;stroke-width:2px"/><rect x="467.5" y="663.214" width="22" height="22" rx="3" style="fill:none;stroke:#1e223b;stroke-linecap:round;stroke-linejoin:round;stroke-width:2px"/><rect x="435.5" y="663.214" width="22" height="22" rx="3" style="fill:none;stroke:#1e223b;stroke-linecap:round;stroke-linejoin:round;stroke-width:2px"/><rect x="403.5" y="663.214" width="22" height="22" rx="3" style="fill:none;stroke:#1e223b;stroke-linecap:round;stroke-linejoin:round;stroke-width:2px"/><rect x="371.5" y="663.214" width="22" height="22" rx="3" style="fill:none;stroke:#1e223b;stroke-linecap:round;stroke-linejoin:round;stroke-width:2px"/><rect x="627.5" y="663.214" width="22" height="53.512" rx="3" style="fill:none;stroke:#1e223b;stroke-linecap:round;stroke-linejoin:round;stroke-width:2px"/><path d="M614,662.714H598a3,3,0,0,0-3,3v25.512a3,3,0,0,1-3,3H566a3,3,0,0,0-3,3v16a3,3,0,0,0,3,3h48a3,3,0,0,0,3-3V665.714A3,3,0,0,0,614,662.714Z" transform="translate(0.5 0.5)" style="fill:none;stroke:#1e223b;stroke-linecap:round;stroke-linejoin:round;stroke-width:2px"/><rect x="531.5" y="694.726" width="22" height="22" rx="3" style="fill:none;stroke:#1e223b;stroke-linecap:round;stroke-linejoin:round;stroke-width:2px"/><rect x="499.5" y="694.726" width="22" height="22" rx="3" style="fill:none;stroke:#1e223b;stroke-linecap:round;stroke-linejoin:round;stroke-width:2px"/><rect x="467.5" y="694.726" width="22" height="22" rx="3" style="fill:none;stroke:#1e223b;stroke-linecap:round;stroke-linejoin:round;stroke-width:2px"/><rect x="435.5" y="694.726" width="22" height="22" rx="3" style="fill:none;stroke:#1e223b;stroke-linecap:round;stroke-linejoin:round;stroke-width:2px"/><rect x="371.5" y="694.726" width="54" height="22" rx="3" style="fill:none;stroke:#1e223b;stroke-linecap:round;stroke-linejoin:round;stroke-width:2px"/><rect x="627.5" y="726.237" width="22" height="22" rx="3" style="fill:none;stroke:#1e223b;stroke-linecap:round;stroke-linejoin:round;stroke-width:2px"/><rect x="595.5" y="726.237" width="22" height="22" rx="3" style="fill:none;stroke:#1e223b;stroke-linecap:round;stroke-linejoin:round;stroke-width:2px"/><rect x="563.5" y="726.237" width="22" height="22" rx="3" style="fill:none;stroke:#1e223b;stroke-linecap:round;stroke-linejoin:round;stroke-width:2px"/><rect x="467.5" y="726.237" width="86" height="22" rx="3" style="fill:none;stroke:#1e223b;stroke-linecap:round;stroke-linejoin:round;stroke-width:2px"/><rect x="435.5" y="726.237" width="22" height="22" rx="3" style="fill:none;stroke:#1e223b;stroke-linecap:round;stroke-linejoin:round;stroke-width:2px"/><rect x="403.5" y="726.237" width="22" height="22" rx="3" style="fill:none;stroke:#1e223b;stroke-linecap:round;stroke-linejoin:round;stroke-width:2px"/><rect x="371.5" y="726.237" width="22" height="22" rx="3" style="fill:none;stroke:#1e223b;stroke-linecap:round;stroke-linejoin:round;stroke-width:2px"/><rect x="392.644" y="819.604" width="44" height="40" style="fill:#f2a197"/><rect x="392.644" y="819.604" width="44" height="40" style="fill:none;stroke:#1e223b;stroke-linecap:round;stroke-linejoin:round;stroke-width:2px"/><rect x="388.115" y="850.604" width="51.898" height="25.514" style="fill:#fff"/><rect x="388.115" y="850.604" width="51.898" height="25.514" style="fill:none;stroke:#1e223b;stroke-linecap:round;stroke-linejoin:round;stroke-width:2px"/><path d="M386.172,875.47h55.784a6.487,6.487,0,0,1,6.487,6.487V998.714a0,0,0,0,1,0,0H379.685a0,0,0,0,1,0,0V881.956A6.487,6.487,0,0,1,386.172,875.47Z" style="fill:#1e223b"/><path d="M386.172,875.47h55.784a6.487,6.487,0,0,1,6.487,6.487V998.714a0,0,0,0,1,0,0H379.685a0,0,0,0,1,0,0V881.956A6.487,6.487,0,0,1,386.172,875.47Z" style="fill:none;stroke:#1e223b;stroke-linecap:round;stroke-linejoin:round;stroke-width:2px"/><circle cx="430.744" cy="863.361" r="4.973" style="fill:#1e223b;opacity:0.2"/><circle cx="430.744" cy="863.361" r="4.973" style="fill:none;stroke:#1e223b;stroke-linecap:round;stroke-linejoin:round;stroke-width:2px"/><path d="M453.786,763.816h1.5a6,6,0,0,1,6,6v51a0,0,0,0,1,0,0h-13.5a0,0,0,0,1,0,0v-51A6,6,0,0,1,453.786,763.816Z" transform="translate(457.555 -120.618) rotate(30)" style="fill:#f2a197"/><path d="M453.786,763.816h1.5a6,6,0,0,1,6,6v51a0,0,0,0,1,0,0h-13.5a0,0,0,0,1,0,0v-51A6,6,0,0,1,453.786,763.816Z" transform="translate(457.555 -120.618) rotate(30)" style="fill:none;stroke:#1e223b;stroke-linecap:round;stroke-linejoin:round;stroke-width:2px"/><path d="M443.565,704.955h-1.5a6,6,0,0,0-6,6v45a3,3,0,0,1-3,3h0a3,3,0,0,1-3-3v-53.7a6,6,0,0,0-6-6h-1.5a6,6,0,0,0-6,6v53.7a3,3,0,0,1-3,3h0a3,3,0,0,1-3-3v-45a6,6,0,0,0-6-6h-1.5a6,6,0,0,0-6,6v45a3,3,0,0,1-3,3h0a3,3,0,0,1-3-3v-30.75a6,6,0,0,0-6-6h-1.5a6,6,0,0,0-6,6v88.245a12,12,0,0,0,12,12h48a12,12,0,0,0,12-12V710.956A6,6,0,0,0,443.565,704.955Z" transform="translate(0.5 0.5)" style="fill:#fdb3a6"/><path d="M443.565,704.955h-1.5a6,6,0,0,0-6,6v45a3,3,0,0,1-3,3h0a3,3,0,0,1-3-3v-53.7a6,6,0,0,0-6-6h-1.5a6,6,0,0,0-6,6v53.7a3,3,0,0,1-3,3h0a3,3,0,0,1-3-3v-45a6,6,0,0,0-6-6h-1.5a6,6,0,0,0-6,6v45a3,3,0,0,1-3,3h0a3,3,0,0,1-3-3v-30.75a6,6,0,0,0-6-6h-1.5a6,6,0,0,0-6,6v88.245a12,12,0,0,0,12,12h48a12,12,0,0,0,12-12V710.956A6,6,0,0,0,443.565,704.955Z" transform="translate(0.5 0.5)" style="fill:none;stroke:#1e223b;stroke-linecap:round;stroke-linejoin:round;stroke-width:2px"/><rect x="501.002" y="907.886" width="44" height="40" style="fill:#f2a197"/><rect x="501.002" y="907.886" width="44" height="40" style="fill:none;stroke:#1e223b;stroke-linecap:round;stroke-linejoin:round;stroke-width:2px"/><path d="M473.648,852.1h13.5a0,0,0,0,1,0,0v51a6,6,0,0,1-6,6h-1.5a6,6,0,0,1-6-6v-51a0,0,0,0,1,0,0Z" transform="translate(1337.234 1403.521) rotate(150)" style="fill:#f2a197"/><path d="M473.648,852.1h13.5a0,0,0,0,1,0,0v51a6,6,0,0,1-6,6h-1.5a6,6,0,0,1-6-6v-51a0,0,0,0,1,0,0Z" transform="translate(1337.234 1403.521) rotate(150)" style="fill:none;stroke:#1e223b;stroke-linecap:round;stroke-linejoin:round;stroke-width:2px"/><path d="M492.5,793.237H494a6,6,0,0,1,6,6v45a3,3,0,0,0,3,3h0a3,3,0,0,0,3-3v-7.172a6,6,0,0,1,6-6h1.5a6,6,0,0,1,6,6v7.172a3,3,0,0,0,3,3h0a3,3,0,0,0,3-3v-7.172a6,6,0,0,1,6-6H533a6,6,0,0,1,6,6v7.172a3,3,0,0,0,3,3h0a3,3,0,0,0,3-3v-7.172a6,6,0,0,1,6-6h1.5a6,6,0,0,1,6,6v64.667a12,12,0,0,1-12,12h-48a12,12,0,0,1-12-12V799.238A6,6,0,0,1,492.5,793.237Z" transform="translate(0.5 0.5)" style="fill:#fdb3a6"/><path d="M492.5,793.237H494a6,6,0,0,1,6,6v45a3,3,0,0,0,3,3h0a3,3,0,0,0,3-3v-7.172a6,6,0,0,1,6-6h1.5a6,6,0,0,1,6,6v7.172a3,3,0,0,0,3,3h0a3,3,0,0,0,3-3v-7.172a6,6,0,0,1,6-6H533a6,6,0,0,1,6,6v7.172a3,3,0,0,0,3,3h0a3,3,0,0,0,3-3v-7.172a6,6,0,0,1,6-6h1.5a6,6,0,0,1,6,6v64.667a12,12,0,0,1-12,12h-48a12,12,0,0,1-12-12V799.238A6,6,0,0,1,492.5,793.237Z" transform="translate(0.5 0.5)" style="fill:none;stroke:#1e223b;stroke-linecap:round;stroke-linejoin:round;stroke-width:2px"/><rect x="497.053" y="938.886" width="51.898" height="25.514" style="fill:#fff"/><rect x="497.053" y="938.886" width="51.898" height="25.514" style="fill:none;stroke:#1e223b;stroke-linecap:round;stroke-linejoin:round;stroke-width:2px"/><path d="M495.11,963.752h55.784a6.487,6.487,0,0,1,6.487,6.487V1000.5a0,0,0,0,1,0,0H488.624a0,0,0,0,1,0,0V970.238A6.487,6.487,0,0,1,495.11,963.752Z" style="fill:#1e223b"/><path d="M495.11,963.752h55.784a6.487,6.487,0,0,1,6.487,6.487V1000.5a0,0,0,0,1,0,0H488.624a0,0,0,0,1,0,0V970.238A6.487,6.487,0,0,1,495.11,963.752Z" style="fill:none;stroke:#1e223b;stroke-linecap:round;stroke-linejoin:round;stroke-width:2px"/><circle cx="508.029" cy="951.643" r="4.973" style="fill:none;stroke:#1e223b;stroke-linecap:round;stroke-linejoin:round;stroke-width:2px"/><circle cx="508.029" cy="951.643" r="4.973" style="fill:#1e223b;opacity:0.2"/><line x1="525" y1="205" x2="579" y2="205" style="fill:none;stroke:#1e223b;stroke-linecap:round;stroke-linejoin:round;stroke-width:3px"/><line x1="525" y1="218.5" x2="567" y2="218.5" style="fill:none;stroke:#1e223b;stroke-linecap:round;stroke-linejoin:round;stroke-width:3px"/><line x1="525" y1="232" x2="549" y2="232" style="fill:none;stroke:#1e223b;stroke-linecap:round;stroke-linejoin:round;stroke-width:3px"/><line x1="597.213" y1="148.5" x2="624.213" y2="148.5" style="fill:none;stroke:#1e223b;stroke-linecap:round;stroke-linejoin:round;stroke-width:3px"/><line x1="597.213" y1="155.5" x2="614.213" y2="155.5" style="fill:none;stroke:#1e223b;stroke-linecap:round;stroke-linejoin:round;stroke-width:3px"/><path d="M504.951,236.556" transform="translate(0.5 0.5)" style="fill:none;stroke:#1e223b;stroke-linecap:round;stroke-linejoin:round;stroke-width:3px"/><path d="M514.5,355.237" transform="translate(0.5 0.5)" style="fill:none;stroke:#1e223b;stroke-linecap:round;stroke-linejoin:round;stroke-width:3px"/><line x1="596.584" y1="219.629" x2="599.584" y2="219.629" style="fill:none;stroke:#1e223b;stroke-linecap:round;stroke-linejoin:round;stroke-width:2px"/><path d="M607.022,219.129h22.214A39.764,39.764,0,0,1,669,258.893h0a39.764,39.764,0,0,1-39.764,39.764H563.672A44.671,44.671,0,0,0,519,343.328v4.94" transform="translate(0.5 0.5)" style="fill:none;stroke:#1e223b;stroke-linecap:round;stroke-linejoin:round;stroke-width:2px;stroke-dasharray:5.95365047454834,7.9382004737854"/><line x1="519.5" y1="352.737" x2="519.5" y2="355.737" style="fill:none;stroke:#1e223b;stroke-linecap:round;stroke-linejoin:round;stroke-width:2px"/><line x1="224.357" y1="467.84" x2="349.899" y2="467.84" style="fill:none;stroke:#1e223b;stroke-linecap:round;stroke-linejoin:round;stroke-width:2px;stroke-dasharray:6,8"/><path d="M220.637,694.226h26.25A45.113,45.113,0,0,0,292,649.113V630.119a44.882,44.882,0,0,1,44.881-44.882H351" transform="translate(0.5 0.5)" style="fill:none;stroke:#1e223b;stroke-linecap:round;stroke-linejoin:round;stroke-width:2px"/><path d="M353.792,222.358h13.556A35.653,35.653,0,0,1,403,258.011h0a35.652,35.652,0,0,0,35.653,35.652h19.695A35.653,35.653,0,0,1,494,329.316v25.921" transform="translate(0.5 0.5)" style="fill:none;stroke:#1e223b;stroke-linecap:round;stroke-linejoin:round;stroke-width:2px;stroke-dasharray:6,8"/><path d="M669,460.232h52.532A34.764,34.764,0,0,0,756.3,425.468V333.422" transform="translate(0.5 0.5)" style="fill:none;stroke:#1e223b;stroke-linecap:round;stroke-linejoin:round;stroke-width:2px"/><circle cx="887.156" cy="734.737" r="30.51" style="fill:none;stroke:#1e223b;stroke-linecap:round;stroke-linejoin:round;stroke-width:2px"/><line x1="669.5" y1="521.419" x2="857.75" y2="521.419" style="fill:none;stroke:#1e223b;stroke-linecap:round;stroke-linejoin:round;stroke-width:2px;stroke-dasharray:6,8"/><circle cx="859.373" cy="752.113" r="35.387" style="fill:#fff"/><circle cx="859.373" cy="752.113" r="35.387" style="fill:none;stroke:#1e223b;stroke-linecap:round;stroke-linejoin:round;stroke-width:2px"/><line x1="823.986" y1="752.113" x2="669.5" y2="752.113" style="fill:none;stroke:#1e223b;stroke-linecap:round;stroke-linejoin:round;stroke-width:2px;stroke-dasharray:6,8"/><circle cx="677" cy="143" r="7.5" style="fill:#fff;opacity:0.39"/><circle cx="677" cy="143" r="7.5" style="fill:none;stroke:#1e223b;stroke-linecap:round;stroke-linejoin:round;stroke-width:2px"/><polyline points="844.256 784.114 859.373 752.113 894.355 757.482" style="fill:none;stroke:#1e223b;stroke-linecap:round;stroke-linejoin:round;stroke-width:2px"/><rect x="769.033" y="683.121" width="88.078" height="45.209" rx="9.042" style="fill:#f73e59"/><rect x="769.033" y="683.121" width="88.078" height="45.209" rx="9.042" style="fill:none;stroke:#1e223b;stroke-linecap:round;stroke-linejoin:round;stroke-width:2px"/><path d="M779.955,713.131l2.135-2.942a9.269,9.269,0,0,0,6.825,3.007c3.1,0,4.3-1.52,4.3-2.975,0-4.528-12.548-1.714-12.548-9.638,0-3.59,3.1-6.34,7.859-6.34a11.174,11.174,0,0,1,8.054,3.04l-2.135,2.814a8.8,8.8,0,0,0-6.275-2.489c-2.2,0-3.622,1.1-3.622,2.684,0,4.042,12.55,1.552,12.55,9.573,0,3.59-2.556,6.694-8.345,6.694A11.8,11.8,0,0,1,779.955,713.131Z" transform="translate(0.5 0.5)" style="fill:#fff"/><path d="M802.046,705.4c0-6.435,4.561-11.158,11.03-11.158,6.435,0,11.028,4.723,11.028,11.158a11.3,11.3,0,0,1-2.879,7.764l1.779,2-2.619,2.2-1.876-2.1a11.526,11.526,0,0,1-5.433,1.293C806.607,716.559,802.046,711.838,802.046,705.4Zm14.069,7.149-2.684-3.041,2.652-2.2,2.684,3.039a8.515,8.515,0,0,0,1.456-4.949c0-4.462-2.814-7.793-7.147-7.793-4.367,0-7.149,3.331-7.149,7.793,0,4.432,2.782,7.8,7.149,7.8A7.125,7.125,0,0,0,816.115,712.55Z" transform="translate(0.5 0.5)" style="fill:#fff"/><path d="M829.9,716.172V694.6h3.784v18.242h9.508v3.331Z" transform="translate(0.5 0.5)" style="fill:#fff"/><rect x="152.918" y="242.869" width="128.255" height="52.201" rx="10.79" style="fill:#e44d26;stroke:#1e223b;stroke-miterlimit:10;stroke-width:2px"/><rect x="152.918" y="242.869" width="128.255" height="52.201" rx="10.79" style="fill:none;stroke:#1e223b;stroke-linecap:round;stroke-linejoin:round;stroke-width:2px"/><path d="M184,280.3V269.942H171.694V280.3h-4.15V256.641h4.15v9.647H184v-9.647h4.15V280.3Z" transform="translate(0.5 0.5)" style="fill:#fff"/><path d="M201.489,280.3v-20h-7.165v-3.653H212.8v3.653h-7.165v20Z" transform="translate(0.5 0.5)" style="fill:#fff"/></g></svg>